<svg width="201" height="177" viewBox="0 0 201 177" fill="none" xmlns="http://www.w3.org/2000/svg">
	<path opacity="0.6" d="M112 83.4084C112 76.4089 150.5 51.9334 165 51.9334C179.485 51.9334 188.5 68.0096 188.5 82.4752C188.5 98.3407 179 114.673 165 114.673C151.779 114.673 112 90.8746 112 83.4084Z" fill="#FF1818"/>
	<path opacity="0.6" d="M83.4574 67.7996C76.9622 71.2994 35.0001 52.4202 27.7501 40.7008C20.5076 28.9937 30.918 13.6693 44.3414 6.43648C59.0638 -1.49628 78.9691 -1.98406 85.9692 9.3311C92.5799 20.0167 90.3856 64.0665 83.4574 67.7996Z" fill="#FF1818"/>
	<path opacity="0.6" d="M103.207 67.9051C96.7122 64.4053 93.2501 21.0506 100.5 9.33123C107.743 -2.37593 127.168 -1.62413 140.591 5.60868C155.314 13.5414 165.719 29.3856 158.719 40.701C152.109 51.3867 110.136 71.6381 103.207 67.9051Z" fill="#FF1818"/>
	<path opacity="0.6" d="M83.2619 98.3633C89.757 101.863 93.2192 145.218 85.9692 156.937C78.7267 168.644 59.3013 167.892 45.8779 160.66C31.1554 152.727 20.7502 136.883 27.75 125.567C34.3603 114.882 76.3336 94.6302 83.2619 98.3633Z" fill="#FF1818"/>
	<path opacity="0.6" d="M76.5 83.1978C76.5 90.1973 38 114.673 23.5 114.673C9.01509 114.673 0 98.5966 1.52829e-09 84.131C3.20448e-09 68.2655 9.5 51.9335 23.5 51.9333C36.721 51.9332 76.5 75.7316 76.5 83.1978Z" fill="#FF1818"/>
	<path opacity="0.6" d="M103.012 99.4018C109.508 95.9021 151.47 114.781 158.72 126.501C165.962 138.208 155.552 153.532 142.128 160.765C127.406 168.698 107.501 169.185 100.5 157.87C93.8898 147.185 96.0841 103.135 103.012 99.4018Z" fill="#FF1818"/>
	<ellipse cx="94" cy="83.5" rx="35" ry="32.5" fill="#09FF12"/>
</svg>
