<svg width="454" height="307" viewBox="0 0 454 307" fill="none" xmlns="http://www.w3.org/2000/svg">
<path d="M226.076 254C172.959 254 127.309 244.237 93.1943 223.914C58.8681 203.465 36.4815 172.451 30.1047 130.91C26.8499 109.708 30.907 90.9753 40.7123 74.9512C50.4546 59.03 65.6631 46.1095 84.2564 35.9724C121.361 15.743 173.019 6 226.076 6C279.016 6 330.192 14.3568 367.388 33.9035C386.045 43.7081 401.42 56.4541 411.602 72.6042C421.832 88.8295 426.589 108.133 424.527 130.55C420.432 175.071 397.27 206.246 361.663 226.03C326.378 245.635 279.046 254 226.076 254Z" fill="white" stroke="black" stroke-width="12"/>
<rect x="46" y="235" width="362" height="66" rx="14" fill="white" stroke="black" stroke-width="12" stroke-linejoin="round"/>
<rect x="85" y="77" width="40" height="15" rx="7.5" transform="rotate(-30 85 77)" fill="black"/>
<rect x="333.576" y="71" width="33" height="15" rx="7.5" transform="rotate(26 333.576 71)" fill="black"/>
<rect x="177" y="28" width="40" height="14" rx="7" fill="black"/>
<rect x="260" y="85.9046" width="34" height="14" rx="7" transform="rotate(-26 260 85.9046)" fill="black"/>
<path d="M161.835 99.8296C160.019 96.1067 161.565 91.6167 165.288 89.8009L185.061 80.1567C188.784 78.3409 193.274 79.8869 195.09 83.6099V83.6099C196.906 87.3328 195.36 91.8228 191.637 93.6386L171.863 103.283C168.14 105.099 163.65 103.553 161.835 99.8296V99.8296Z" fill="black"/>
<rect x="297.339" y="29" width="37" height="15" rx="7.5" transform="rotate(25 297.339 29)" fill="black"/>
<rect x="6" y="126" width="442" height="101" rx="50.5" fill="white" stroke="black" stroke-width="12"/>
</svg>
