
<svg xmlns="http://www.w3.org/2000/svg" xmlns:xlink="http://www.w3.org/1999/xlink" width="1000px" height="282.5px">
	<path stroke="#d695b3" stroke-width="1px" stroke-dasharray="4, 2" fill="transparent"
	d="M219.500,0.500 C219.500,0.500 290.276,6.500 361.500,24.500 C432.724,42.500 490.500,72.500 490.500,72.500 C490.500,72.500 539.739,103.066 499.500,135.500 C469.724,159.500 390.276,171.500 315.500,153.500 C225.315,131.790 152.776,122.500 121.500,121.500 C90.224,120.500 42.776,128.000 26.500,140.500 C9.792,153.332 -40.319,219.055 84.500,238.500 C126.224,245.000 171.699,244.335 256.500,257.500 C299.622,264.194 318.500,280.500 318.500,280.500 "></path>
	<path id="arrow-768" transform='translate(-495, -74)' fill="#d695b3" d="M485.724,75.435 L496.149,77.752 L491.039,68.374 C491.039,68.374 492.153,71.794 490.500,73.499 C488.847,75.205 485.724,75.435 485.724,75.435 Z">
		<animateMotion href="#arrow-768" calcMode="linear" begin='0s' dur="10s" repeatCount="indefinite"
					path='M219.500,0.500 C219.500,0.500 290.276,6.500 361.500,24.500 C432.724,42.500 490.500,72.500 490.500,72.500 C490.500,72.500 539.739,103.066 499.500,135.500 C469.724,159.500 390.276,171.500 315.500,153.500 C225.315,131.790 152.776,122.500 121.500,121.500 C90.224,120.500 42.776,128.000 26.500,140.500 C9.792,153.332 -40.319,219.055 84.500,238.500 C126.224,245.000 171.699,244.335 256.500,257.500 C299.622,264.194 318.500,280.500 318.500,280.500'>
		</animateMotion>
	</path>
</svg>