<svg width="205" height="30" viewBox="0 0 205 30" fill="none" xmlns="http://www.w3.org/2000/svg">
<g clip-path="url(#clip0)">
<path d="M7.5809 15.8923L19.1347 4.21C19.9153 3.42414 20.9714 2.98299 22.0724 2.98299C23.1733 2.98299 24.2295 3.42414 25.01 4.21L25.9079 5.11885L27.7078 3.297L26.8099 2.384C25.5509 1.11233 23.8449 0.398144 22.0662 0.398144C20.2876 0.398144 18.5815 1.11233 17.3225 2.384L5.77691 14.0704L7.5809 15.8923Z" fill="#E9E9E9"/>
<path d="M23.0051 8.05705L21.2052 6.2352L9.6473 17.9341C8.86656 18.7238 7.80786 19.1672 6.7041 19.1668C5.60035 19.1664 4.54195 18.7222 3.76175 17.932C2.98155 17.1417 2.54346 16.0701 2.54384 14.9529C2.54423 13.8357 2.98306 12.7644 3.7638 11.9747L13.735 1.88185L11.9351 0.0600014L1.9639 10.1528C1.32913 10.7804 0.823702 11.5293 0.476884 12.356C0.130066 13.1827 -0.0512441 14.0709 -0.0565439 14.9691C-0.0618436 15.8672 0.108972 16.7575 0.446009 17.5884C0.783046 18.4192 1.2796 19.1742 1.90692 19.8094C2.53424 20.4446 3.27985 20.9476 4.10056 21.2891C4.92126 21.6306 5.80076 21.8039 6.6881 21.7989C7.57544 21.7939 8.45298 21.6108 9.2699 21.2601C10.0868 20.9094 10.8269 20.3981 11.4472 19.7559L23.0051 8.05705ZM34.5097 10.1528C33.2501 8.88214 31.5443 8.16866 29.766 8.16866C27.9877 8.16866 26.2819 8.88214 25.0223 10.1528L13.4644 21.8517L15.2643 23.6735L26.8222 11.9747C27.4044 11.3865 28.1458 10.9862 28.9526 10.8243C29.7595 10.6624 30.5957 10.7461 31.3555 11.065C32.1154 11.3838 32.7649 11.9234 33.2219 12.6157C33.679 13.3079 33.9231 14.1218 33.9234 14.9544C33.9255 15.509 33.8178 16.0585 33.6065 16.5703C33.3952 17.0821 33.0847 17.5458 32.6934 17.9341L22.7345 28.0268L24.5385 29.8487L34.5097 19.7559C35.7661 18.4815 36.4716 16.7547 36.4716 14.9544C36.4716 13.154 35.7661 11.4272 34.5097 10.1528Z" fill="#E9E9E9"/>
<path d="M28.8927 14.0164L17.3348 25.7111C16.5532 26.4998 15.4946 26.9426 14.391 26.9426C13.2874 26.9426 12.2288 26.4998 11.4472 25.7111L10.5493 24.7981L8.7494 26.62L9.64731 27.533C10.9069 28.8037 12.6127 29.5171 14.391 29.5171C16.1693 29.5171 17.8751 28.8037 19.1347 27.533L30.6926 15.83L28.8927 14.0164Z" fill="#E9E9E9"/>
<path d="M47.027 18.1001C47.1452 18.794 47.5188 19.4167 48.0725 19.8431C48.7077 20.2878 49.47 20.5081 50.2414 20.4697C50.9757 20.5171 51.7025 20.2978 52.2914 19.8514C52.5261 19.6537 52.7131 19.4044 52.8382 19.1225C52.9633 18.8405 53.023 18.5334 53.013 18.2246C53.0213 17.9356 52.9548 17.6495 52.8203 17.3946C52.6855 17.1631 52.5005 16.9659 52.2791 16.8177C52.0151 16.6403 51.7281 16.5006 51.4263 16.4027L50.2865 16.0541L49.2 15.7553C48.5977 15.5938 48.0116 15.3756 47.4493 15.1038C46.9666 14.8727 46.5203 14.5706 46.125 14.2074C45.7724 13.876 45.493 13.4729 45.305 13.0246C45.1045 12.5314 45.0068 12.0016 45.018 11.4684C45.0122 10.8776 45.1383 10.2931 45.387 9.75855C45.6267 9.23836 45.9817 8.78109 46.4243 8.42225C46.9112 8.0278 47.4678 7.73064 48.0643 7.5466C48.7614 7.32301 49.4897 7.2151 50.2209 7.22705C51.727 7.22705 52.9201 7.58672 53.8002 8.30605C54.2364 8.66161 54.5982 9.10167 54.8643 9.60049C55.1304 10.0993 55.2955 10.6468 55.35 11.2111L52.89 11.4144C52.7683 10.8431 52.4519 10.3333 51.9962 9.97435C51.4438 9.60057 50.7858 9.41985 50.1225 9.45975C49.4966 9.42251 48.8775 9.60743 48.3718 9.98265C48.1698 10.142 48.0075 10.3469 47.8979 10.5812C47.7883 10.8154 47.7343 11.0723 47.7404 11.3314C47.7303 11.6076 47.794 11.8815 47.9249 12.1241C48.0568 12.348 48.2377 12.5382 48.4538 12.6802C48.7172 12.8535 49.0009 12.993 49.2984 13.0952C49.6305 13.2197 50.0077 13.3525 50.4259 13.4894L51.4673 13.8173C52.1151 14.0248 52.7014 14.2406 53.2262 14.4647C53.7088 14.6724 54.158 14.9522 54.5587 15.2947C54.9199 15.6041 55.2084 15.9911 55.4033 16.4276C55.6142 16.9426 55.7149 17.4971 55.6985 18.0544C55.7053 18.7058 55.5651 19.3503 55.2885 19.9385C55.0217 20.5035 54.632 21.0001 54.1487 21.391C53.6293 21.8067 53.0386 22.1218 52.4062 22.3206C51.6857 22.5474 50.9344 22.6581 50.1799 22.6485C48.8456 22.6988 47.5292 22.3243 46.4161 21.5778C45.8965 21.1971 45.4614 20.7106 45.1387 20.1496C44.816 19.5885 44.6129 18.9653 44.5424 18.32L47.027 18.1001ZM66.0715 7.26855C67.1028 7.25504 68.1267 7.44681 69.085 7.83295C69.9602 8.18776 70.7501 8.72834 71.4015 9.41825C72.0551 10.1217 72.5614 10.9518 72.8898 11.8585C73.2504 12.8551 73.4296 13.9096 73.4187 14.971C73.4334 16.0517 73.2427 17.1253 72.857 18.1333C72.4974 19.0493 71.9544 19.8802 71.2621 20.5735L73.2137 22.885V23.603H70.7537L69.3884 21.9139C68.8938 22.1534 68.3757 22.3398 67.8427 22.47C67.2673 22.5945 66.6804 22.6557 66.092 22.6526C65.0489 22.659 64.0149 22.4558 63.0498 22.055C62.1795 21.6979 61.3952 21.1559 60.7497 20.4656C60.104 19.7653 59.606 18.9392 59.286 18.0378C58.9324 17.051 58.7561 16.0082 58.7653 14.9585C58.755 13.902 58.9314 12.8522 59.286 11.8585C59.608 10.9539 60.1104 10.1261 60.762 9.42655C61.4117 8.73647 62.1984 8.19337 63.0703 7.83295C64.023 7.44223 65.0438 7.25026 66.0715 7.26855ZM66.051 9.49295C65.3741 9.48239 64.7033 9.62413 64.0871 9.90795C63.521 10.1727 63.0208 10.5627 62.6234 11.0492C62.2102 11.5594 61.8983 12.1456 61.705 12.7756C61.4911 13.4771 61.386 14.2078 61.3934 14.9419C61.3862 15.6823 61.4956 16.4192 61.7173 17.1248C61.9159 17.7605 62.2302 18.3531 62.6439 18.872C63.0406 19.3644 63.5406 19.7613 64.1076 20.034C64.7231 20.3198 65.3944 20.4616 66.0715 20.449C66.748 20.4556 67.418 20.314 68.0354 20.034C68.6004 19.7749 69.1007 19.3905 69.4991 18.9093C69.9177 18.3984 70.2325 17.8089 70.4257 17.1746C70.65 16.4524 70.7607 15.6989 70.7537 14.9419C70.76 14.1958 70.6493 13.4534 70.4257 12.7424C70.2297 12.1118 69.9151 11.5256 69.4991 11.016C69.0965 10.5347 68.5939 10.1493 68.0272 9.8872C67.4048 9.61133 66.7303 9.47676 66.051 9.49295ZM83.0824 20.5527C83.5382 20.5811 83.9946 20.5081 84.4196 20.3389C84.8446 20.1697 85.2278 19.9084 85.5424 19.5733C86.1246 18.9231 86.4157 17.9244 86.4157 16.577V7.5549H88.97V16.66C88.9902 17.5928 88.8515 18.5222 88.56 19.4073C88.3245 20.1163 87.9269 20.759 87.3997 21.2831C86.8766 21.7843 86.2426 22.1515 85.5506 22.3538C83.9408 22.8044 82.2404 22.8044 80.6306 22.3538C79.9411 22.1513 79.3097 21.7841 78.7897 21.2831C78.2638 20.7579 77.8664 20.1156 77.6294 19.4073C77.3381 18.5221 77.1994 17.5928 77.2194 16.66V7.5549H79.7819V16.577C79.7819 17.9216 80.0744 18.9204 80.6593 19.5733C80.9694 19.9039 81.3466 20.1626 81.7649 20.3317C82.1831 20.5007 82.6326 20.5761 83.0824 20.5527ZM91.5284 21.64L96.7149 7.5715H100.561L105.69 21.64V22.3455H103.168L101.7 18.1208H95.3742L93.89 22.3455H91.512L91.5284 21.64ZM96.145 15.913H100.971L100.175 13.5641C99.8637 12.647 99.6136 11.9041 99.4209 11.319C99.2282 10.7338 99.0642 10.2358 98.9125 9.7959H98.2852L98.0392 10.4973C97.9572 10.7297 97.867 10.9911 97.7645 11.2775C97.662 11.5638 97.5513 11.8958 97.4283 12.2693C97.3053 12.6428 97.1577 13.0703 96.9814 13.5641L96.145 15.913ZM120.015 22.3455H117.555L113.098 16.5355H111.458V22.3455H108.933V7.5549H113.677C114.387 7.55364 115.097 7.60496 115.8 7.70845C116.454 7.80437 117.078 8.04837 117.625 8.42225C118.778 9.19138 119.355 10.3506 119.355 11.9C119.367 12.5004 119.265 13.0976 119.056 13.6596C118.879 14.1327 118.613 14.5668 118.273 14.9378C117.948 15.2864 117.567 15.5757 117.145 15.7927C116.722 16.0114 116.275 16.1773 115.813 16.2865L120.015 21.64V22.3455ZM111.45 14.3111H113.668C114.473 14.3544 115.273 14.1675 115.977 13.7716C116.26 13.5798 116.488 13.3148 116.637 13.0039C116.785 12.6931 116.849 12.3478 116.821 12.0037C116.855 11.6622 116.792 11.318 116.641 11.011C116.489 10.704 116.254 10.4468 115.964 10.269C115.253 9.91081 114.462 9.74227 113.668 9.7793H111.45V14.3111ZM123.271 7.5549H132.733V9.8208H125.763V13.6928H132.233V15.9172H125.776V20.0672H132.877V22.3455H123.271V7.5549ZM138.535 18.1001C138.653 18.794 139.027 19.4167 139.58 19.8431C140.216 20.2872 140.978 20.5074 141.749 20.4697C142.484 20.5171 143.21 20.2978 143.799 19.8514C144.034 19.6537 144.221 19.4044 144.346 19.1225C144.471 18.8405 144.531 18.5334 144.521 18.2246C144.529 17.9356 144.463 17.6495 144.328 17.3946C144.193 17.1631 144.008 16.9659 143.787 16.8177C143.523 16.6403 143.236 16.5006 142.934 16.4027L141.794 16.0541L140.696 15.747C140.093 15.5855 139.507 15.3673 138.945 15.0955C138.462 14.8644 138.016 14.5623 137.621 14.1991C137.268 13.8677 136.989 13.4646 136.801 13.0163C136.598 12.494 136.501 11.9358 136.515 11.3749C136.529 10.8139 136.654 10.2615 136.883 9.75025C137.124 9.23091 137.478 8.77393 137.92 8.41395C138.407 8.0195 138.963 7.72234 139.56 7.5383C140.257 7.31471 140.985 7.2068 141.716 7.21875C143.223 7.21875 144.417 7.57842 145.3 8.29775C145.736 8.65352 146.097 9.09372 146.362 9.59254C146.627 10.0914 146.792 10.6388 146.846 11.2028L144.386 11.4061C144.266 10.836 143.953 10.3264 143.5 9.96605C142.948 9.59171 142.29 9.41094 141.626 9.45145C141 9.41421 140.381 9.59913 139.876 9.97435C139.674 10.1341 139.513 10.3393 139.404 10.5734C139.295 10.8076 139.242 11.0643 139.248 11.3231C139.237 11.5989 139.299 11.8728 139.429 12.1158C139.561 12.3397 139.742 12.5299 139.958 12.6719C140.221 12.8452 140.505 12.9847 140.802 13.0869C141.134 13.2114 141.511 13.3442 141.934 13.4811L142.971 13.809C143.622 14.0165 144.208 14.2323 144.73 14.4564C145.213 14.6641 145.662 14.9439 146.062 15.2864C146.424 15.5958 146.712 15.9828 146.907 16.4193C147.118 16.9343 147.219 17.4888 147.202 18.0461C147.209 18.6975 147.069 19.342 146.792 19.9302C146.527 20.4961 146.137 20.9929 145.652 21.3827C145.132 21.7951 144.542 22.1073 143.91 22.304C143.188 22.5308 142.435 22.6414 141.68 22.6319C140.345 22.6816 139.029 22.3072 137.916 21.5612C137.4 21.1816 136.967 20.6973 136.646 20.1393C136.325 19.5813 136.122 18.9617 136.05 18.32L138.535 18.1001ZM150.843 7.5549H156.173C157.018 7.53283 157.86 7.65202 158.666 7.90765C159.278 8.09876 159.839 8.42956 160.306 8.8746C160.716 9.27824 161.023 9.77673 161.2 10.3271C161.388 10.9083 161.48 11.5167 161.474 12.1282C161.491 12.8173 161.363 13.502 161.097 14.1368C160.858 14.6919 160.484 15.177 160.011 15.5478C159.493 15.9358 158.905 16.2178 158.28 16.3778C157.529 16.5729 156.756 16.6664 155.98 16.6559H153.397V22.3455H150.851L150.843 7.5549ZM153.389 14.4356H155.829C156.241 14.4387 156.653 14.4012 157.059 14.3236C157.404 14.2582 157.734 14.1302 158.034 13.9459C158.311 13.771 158.536 13.5246 158.686 13.2321C158.851 12.8887 158.932 12.5099 158.92 12.1282C158.932 11.7371 158.852 11.3487 158.686 10.9953C158.54 10.699 158.318 10.4481 158.043 10.269C157.748 10.0834 157.421 9.95528 157.079 9.89135C156.674 9.81312 156.262 9.77558 155.849 9.7793H153.369L153.389 14.4356ZM162.18 21.64L167.37 7.5715H171.216L176.341 21.64V22.3455H173.84L172.376 18.1208H166.025L164.562 22.3455H162.18V21.64ZM166.8 15.913H171.622L170.826 13.5641C170.515 12.647 170.265 11.9041 170.076 11.319L169.568 9.7959H168.92L168.674 10.4973C168.592 10.7297 168.502 10.9911 168.399 11.2775C168.297 11.5638 168.186 11.8958 168.063 12.2693C167.94 12.6428 167.792 13.0703 167.616 13.5641L166.8 15.913ZM191.847 18.4321C191.616 19.0107 191.313 19.5573 190.945 20.0589C190.564 20.573 190.106 21.0239 189.588 21.3952C189.026 21.7946 188.405 22.1 187.747 22.2999C186.992 22.5288 186.207 22.6407 185.418 22.6319C184.4 22.6475 183.39 22.4511 182.45 22.055C181.589 21.6915 180.814 21.1485 180.174 20.4614C179.532 19.7586 179.037 18.9313 178.719 18.0295C178.371 17.0486 178.198 16.0131 178.206 14.971C178.197 13.9288 178.371 12.8932 178.719 11.9124C179.038 11.0065 179.536 10.1761 180.183 9.4722C180.826 8.77778 181.605 8.22658 182.47 7.8537C183.413 7.45234 184.428 7.25311 185.451 7.26855C186.874 7.21735 188.277 7.61311 189.469 8.4015C190.528 9.13191 191.331 10.184 191.761 11.4061L189.174 11.9207C188.852 11.2019 188.341 10.5862 187.698 10.1404C187.018 9.69465 186.22 9.46885 185.41 9.49295C184.746 9.47824 184.088 9.62033 183.487 9.90795C182.934 10.1826 182.448 10.578 182.065 11.0658C181.662 11.5854 181.361 12.1785 181.179 12.813C180.97 13.5111 180.866 14.2373 180.871 14.9668C180.865 15.7011 180.972 16.4319 181.187 17.1331C181.38 17.7612 181.69 18.3459 182.101 18.8554C182.503 19.3338 183.002 19.7176 183.565 19.98C184.178 20.2646 184.847 20.4064 185.521 20.395C186.359 20.4291 187.185 20.1826 187.87 19.6937C188.474 19.2456 188.966 18.6599 189.305 17.9839L191.847 18.4321ZM195.287 7.5549H204.75V9.8208H197.78V13.6928H204.262V15.9172H197.792V20.0672H204.893V22.3455H195.287V7.5549Z" fill="#E9E9E9"/>
</g>
<defs>
<clipPath id="clip0">
<rect width="205" height="30" fill="white"/>
</clipPath>
</defs>
</svg>
